# xmcd
#
# Track frame offsets: 
#        150
#        11022
#        24390
#        36751
#        47281
#        57216
#        69156
#        80569
#        91047
#        103423
#        116511
#        127955
#        137810
#        148547
#        161042
#        170506
#        183242
#        193616
#        202563
#        211270
#        223240
#        233367
#        242632
#        254039
#        265109
#        274136
#        286747
#        297405
#        309058
#
# Disc length: 4261 seconds
#
# Revision: 0
# Processed by: cddbd v1.5.2PL0 Copyright (c) Steve Scherf et al.
# Submitted via: ExactAudioCopyFreeDBPlugin 1.0
#
DISCID=9410a31d
DTITLE=Sam Cooke - The Complete Solo Singles A's and B's, 1957-62
DYEAR=2016
DGENRE=Soul
TTITLE0=Lovable
TTITLE1=Forever
TTITLE2=You Send Me
TTITLE3=Summertime (Part 1)
TTITLE4=I'll Come Running Back to You
TTITLE5=(I Love You) For Sentimental Reasons
TTITLE6=Desire Me
TTITLE7=That's All I Need to Know
TTITLE8=I Don't Want to Cry
TTITLE9=You Were Made for Me
TTITLE10=Lonely Island
TTITLE11=Stealing Kisses
TTITLE12=All of My Life
TTITLE13=Win Your Love for Me
TTITLE14=Almost in Your Arms (Love Song from Houseboat)
TTITLE15=Blue Moon
TTITLE16=Love You Most of All
TTITLE17=I Need You Now
TTITLE18=Happy in Love
TTITLE19=Everybody Loves to Cha Cha Cha
TTITLE20=Little Things You Do
TTITLE21=Only Sixteen
TTITLE22=Let's Go Steady Again
TTITLE23=Summertime (Part 2)
TTITLE24=There, I've Said it Again
TTITLE25=One Hour Ahead of the Posse
TTITLE26=Mary, Mary Lou
TTITLE27=Ee-Yi-Ee-Yi-Oh
TTITLE28=T'ain't Nobody's Bizness
EXTD=
EXTT0=
EXTT1=
EXTT2=
EXTT3=
EXTT4=
EXTT5=
EXTT6=
EXTT7=
EXTT8=
EXTT9=
EXTT10=
EXTT11=
EXTT12=
EXTT13=
EXTT14=
EXTT15=
EXTT16=
EXTT17=
EXTT18=
EXTT19=
EXTT20=
EXTT21=
EXTT22=
EXTT23=
EXTT24=
EXTT25=
EXTT26=
EXTT27=
EXTT28=
PLAYORDER=
